<svg xmlns="http://www.w3.org/2000/svg" data-name="Layer 1" viewBox="0 0 512 512"><circle cx="256" cy="454" r="50.5" fill="#e4222e"/><path fill="#fff" d="M220.21,497a7.51,7.51,0,0,1-5.31-12.81l71-71a7.5,7.5,0,1,1,10.61,10.61l-71,71A7.44,7.44,0,0,1,220.21,497Z"/><path fill="#fbbf7d" d="M504.5 435.17c-.86 2.24-1.89 4.71-3.1 7.36a124.4 124.4 0 0 1-19.17 29.75 122.46 122.46 0 0 1-36.94 28.85c-2.65 1.36-5.07 2.46-7.18 3.37l-8.45-8.41C378.06 444.74 300.57 368.62 249 317.33l71.33-65.66c57.74 57.32 138.46 138 176.22 175.6zM256 188.38l-34.38 34.13L187.88 256l-36.11-35.95 1.29-7a52.91 52.91 0 0 0-1.56-25.47 52.15 52.15 0 0 0-12.92-21.31L58.72 86.2 37.54 65.13l-30-29.9L34.06 7.5 64 37.28 85.15 58.36l80 80.21a50.83 50.83 0 0 0 21 12.61 50.07 50.07 0 0 0 25.2 1l6.82-1.48 3 3L251 183.38z"/><path fill="#f9a242" d="M430.2 439.05a7.48 7.48 0 0 1-5.31-2.2l-140.73-141a7.5 7.5 0 1 1 10.62-10.6l140.73 141a7.5 7.5 0 0 1-5.31 12.8zM221.62 230a7.48 7.48 0 0 1-5.31-2.2l-48.13-48.23A7.5 7.5 0 0 1 178.8 169l48.13 48.23a7.5 7.5 0 0 1-5.31 12.8z"/><path fill="#f9a242" d="M504.5,435.17c-.86,2.24-1.89,4.71-3.1,7.36l-62.79-3.06-8.77-.43a7.46,7.46,0,0,1-7.06-6.48l0-.15v-.05l0-.35v-.1c0-.19,0-.39,0-.58v-.14a1.36,1.36,0,0,1,0-.29.41.41,0,0,1,0-.12q0-.31.09-.63a3.84,3.84,0,0,1,.16-.67,6.21,6.21,0,0,1,.49-1.26c.1-.2.21-.4.32-.59a5.85,5.85,0,0,1,.8-1.07,6.24,6.24,0,0,1,.95-.9,7.59,7.59,0,0,1,.65-.46,7.09,7.09,0,0,1,1.13-.58c.21-.09.44-.17.66-.24l.34-.09.34-.08.36-.06.35,0,.46,0a5.77,5.77,0,0,1,.72,0l66,3.21Z"/><path fill="#f9a242" d="M445.29,501.13c-2.65,1.36-5.07,2.46-7.18,3.37l-8.45-8.41-6.9-63.68v-.05l0-.35v-.1a5.66,5.66,0,0,1,0-1,.41.41,0,0,1,0-.12q0-.31.09-.63c0-.22.1-.45.16-.67a7.15,7.15,0,0,1,.49-1.26c.1-.2.21-.4.32-.59a8.51,8.51,0,0,1,.8-1.07,7.34,7.34,0,0,1,.95-.9,7.59,7.59,0,0,1,2.44-1.28c.23-.07.45-.12.68-.17s.47-.08.71-.11l.46,0a7.5,7.5,0,0,1,7.81,6.68l.95,8.72Z"/><path fill="#eb304a" d="M186.14,151.18l-.08.33a51.28,51.28,0,0,1-12.2,22.38l-.37.39a49.67,49.67,0,0,1-22,13.33,52.15,52.15,0,0,0-12.92-21.31L58.72,86.2,37.54,65.13l-30-29.9L34.06,7.5,64,37.28,85.15,58.36l80,80.21A50.83,50.83,0,0,0,186.14,151.18Z"/><polygon fill="#e1e1e3" points="85.15 58.36 58.72 86.2 37.54 65.13 63.98 37.28 85.15 58.36"/><path fill="#fbbf7d" d="M504.5,35.23l-30,29.9L453.28,86.2l-79.86,80.1a52.15,52.15,0,0,0-12.92,21.31,52.91,52.91,0,0,0-1.56,25.47l1.29,7-71,70.64-29.83,29.68C207.61,372,135.1,443.59,82.34,496.09l-8.45,8.41c-2.11-.91-4.53-2-7.18-3.37a122.46,122.46,0,0,1-36.94-28.85A124.4,124.4,0,0,1,10.6,442.53c-1.21-2.65-2.24-5.12-3.1-7.36l8-7.9C80.38,362.72,261,183.38,261,183.38l29.83-29.7,3-3,6.82,1.48a50.27,50.27,0,0,0,46.21-13.64l80-80.21L448,37.28,477.94,7.5Z"/><path fill="#f9a242" d="M81.8,439.05a7.5,7.5,0,0,1-5.31-12.79L333.2,169a7.5,7.5,0,0,1,10.62,10.6L87.11,436.85A7.48,7.48,0,0,1,81.8,439.05Z"/><path fill="#f9a242" d="M89.28,431.91v.1l0,.35v.05l0,.16a7.38,7.38,0,0,1-2,4.15,6.51,6.51,0,0,1-.54.51l-.32.26-.42.3-.08,0c-.16.11-.32.2-.48.29l-.23.12a3.17,3.17,0,0,1-.42.19,1.09,1.09,0,0,1-.25.1,2.86,2.86,0,0,1-.41.15l-.26.08a4.7,4.7,0,0,1-.51.12l-.2,0a2.2,2.2,0,0,1-.37.05,2.73,2.73,0,0,1-.5,0h-.09l-8.77.43L10.6,442.53c-1.21-2.65-2.24-5.12-3.1-7.36l8-7.9,63.1-3.07,2.52-.12.36,0h.39a4.58,4.58,0,0,1,.53,0h.26l.35,0,.36.06.34.08.34.09c.22.07.45.15.66.24a7.09,7.09,0,0,1,1.13.58,7.59,7.59,0,0,1,.65.46,6.24,6.24,0,0,1,1,.9,5.85,5.85,0,0,1,.8,1.07c.11.19.22.39.32.59a6.21,6.21,0,0,1,.49,1.26c.06.22.12.45.16.67s.07.42.09.63a.41.41,0,0,1,0,.12,1.36,1.36,0,0,1,0,.29v.14C89.29,431.52,89.29,431.72,89.28,431.91Z"/><path fill="#f9a242" d="M89.28,431.91v.1l0,.35v.05L89,435l-6.62,61.1-8.45,8.41c-2.11-.91-4.53-2-7.18-3.37l6.68-61.66.94-8.62v-.1c0-.21.06-.42.1-.63a4.7,4.7,0,0,1,.12-.51,7.13,7.13,0,0,1,1-2.24,5,5,0,0,1,.4-.54,6.17,6.17,0,0,1,.48-.54s0,0,0,0a7.46,7.46,0,0,1,4.58-2.18l.75,0a4.49,4.49,0,0,1,.64,0h.15c.24,0,.47.06.71.11s.45.1.68.17a7.59,7.59,0,0,1,2.44,1.28,7.34,7.34,0,0,1,1,.9,8.51,8.51,0,0,1,.8,1.07c.11.19.22.39.32.59a7.15,7.15,0,0,1,.49,1.26c.06.22.12.45.16.67s.07.42.09.63a.41.41,0,0,1,0,.12A5.66,5.66,0,0,1,89.28,431.91Z"/><path fill="#eb304a" d="M477.94,7.5,448,37.28,426.85,58.36l-80,80.21A50.7,50.7,0,0,1,326,151.15l0,.36a51.28,51.28,0,0,0,12.2,22.38l.37.39a49.67,49.67,0,0,0,22,13.33,52.15,52.15,0,0,1,12.92-21.31l79.86-80.1,21.18-21.07,30-29.9Z"/><polygon fill="#e1e1e3" points="474.46 65.13 453.28 86.2 426.85 58.36 448.02 37.28 474.46 65.13"/></svg>