<svg xmlns="http://www.w3.org/2000/svg" data-name="Layer 1" viewBox="0 0 512 512"><circle cx="256" cy="455.33" r="41.5" fill="#eeedee"/><path fill="#dfdfde" d="M256,413.83a42.09,42.09,0,0,0-7.5.69,41.49,41.49,0,0,1,0,81.62,41.5,41.5,0,1,0,7.5-82.31Z"/><path fill="#f26767" d="M444.68,434.84a22.6,22.6,0,0,1-4.43,3.93,13.28,13.28,0,0,1-7.62,2.2h0a15.62,15.62,0,0,1-11.43-5.62l-17.5-20.06-41-47-124.36-127-26.55,30.43L323.27,413.4l52.79,60.5c30,34.36,77.27,35.86,105.63,3.36,23.2-26.6,26.54-67.73,10.54-100.61v0a92.57,92.57,0,0,0-13.48-20.43,84.89,84.89,0,0,0-10.09-9.84c-5.88-4.83-13.3-6.59-20-4.44a30,30,0,0,0-13.48,9l-.26.29c-10,11.71-7.62,31.83,4.9,41.43a26.93,26.93,0,0,1,3.91,3.68c9.53,10.92,9.95,28.19.94,38.51"/><path fill="#f05252" d="M434.93 381.22l.26-.29a30 30 0 0 1 13.48-9c6.69-2.15 14.11-.39 20 4.44a84.89 84.89 0 0 1 10.09 9.84 92.57 92.57 0 0 1 13.48 20.43v0a98.48 98.48 0 0 1 8.73 28.1 98.94 98.94 0 0 0-8.73-58.1v0a92.57 92.57 0 0 0-13.48-20.43 84.89 84.89 0 0 0-10.09-9.84c-5.88-4.83-13.3-6.59-20-4.44a30 30 0 0 0-13.48 9l-.26.29c-7.62 8.95-8 22.79-2.24 33.11A25.26 25.26 0 0 1 434.93 381.22zM238.3 271.28l124.36 127 41 47 17.5 20.06A15.62 15.62 0 0 0 432.63 471a13.28 13.28 0 0 0 7.62-2.2 22.6 22.6 0 0 0 4.43-3.93c7.73-8.86 8.5-22.84 2.54-33.53a25 25 0 0 1-2.54 3.53 22.6 22.6 0 0 1-4.43 3.93 13.28 13.28 0 0 1-7.62 2.2 15.62 15.62 0 0 1-11.43-5.62l-17.5-20.06-41-47-124.36-127-26.55 30.43 12.42 15.77z"/><path fill="#fee867" d="M238.3,241.28l-26.55,30.43L183,237.54l-10.25-12.18-15.24-18.09L147.23,195.1,132,177l-10.25-12.18L106.5,146.73,96.25,134.55,81,116.49,70.73,104.25,55.51,86.18l-10-11.86L13.4,36.17a15,15,0,0,1,.18-19.52l.17-.2a15,15,0,0,1,22.46-.16L80.06,65.11l10.74,12L107.45,95.6l10.79,12L133.86,125l10.74,12,16.16,18,10.74,12,16.16,18,10.73,11.95,16.16,18,10.74,11.95Z"/><path fill="#fee235" d="M225.29,226.79l-10.74-11.95-16.16-18L187.66,184.9l-16.16-18-10.74-12L144.6,137l-10.74-12-15.62-17.38-10.79-12L90.8,77.06l-10.74-12L36.21,16.29a15,15,0,0,0-22.46.16l-.17.2a14.84,14.84,0,0,0-2.79,4.73L50.06,65.11l10.74,12L77.45,95.6l10.79,12L103.86,125l10.74,12,16.16,18,10.74,12,16.16,18,10.73,11.95,16.16,18,10.74,11.95,1.54,1.72a19.37,19.37,0,0,1,.18,25.7h0l14.74,17.5,26.55-30.43Z"/><path fill="#646db3" d="M90.8 77.06a7.41 7.41 0 0 1-3.32 1.73l-32 7.39-10-11.86a7.45 7.45 0 0 1 3.67-2.07l30.86-7.14zM118.24 107.62a7.32 7.32 0 0 1-3.46 1.76L81 116.49 70.73 104.25A7.47 7.47 0 0 1 74 102.64l33.43-7zM144.6 137a7.51 7.51 0 0 1-3.32 1.73l-34.78 8L96.25 134.55A7.41 7.41 0 0 1 99.39 133l34.47-8zM171.5 166.91a7.58 7.58 0 0 1-3.33 1.72L132 177l-10.25-12.18a7.51 7.51 0 0 1 3.14-1.57l35.88-8.3zM198.39 196.85a7.41 7.41 0 0 1-3.32 1.73l-37.59 8.69L147.23 195.1a7.41 7.41 0 0 1 3.14-1.58l37.29-8.62zM225.29 226.79a7.42 7.42 0 0 1-3.32 1.74l-39 9-10.25-12.18a7.55 7.55 0 0 1 3.15-1.57l38.68-8.95z"/><path fill="#5563ad" d="M90.8 77.06a7.41 7.41 0 0 1-3.32 1.73L66.67 83.6 60.8 77.06l-5.58-6.2 24.84-5.75zM118.24 107.62a7.32 7.32 0 0 1-3.46 1.76l-21 4.42-5.56-6.18-6-6.71 25.23-5.31zM144.6 137a7.51 7.51 0 0 1-3.32 1.73l-20.81 4.81L114.6 137 109 130.74 133.86 125zM171.5 166.91a7.58 7.58 0 0 1-3.33 1.72l-20.8 4.81-5.87-6.53-5.58-6.21L160.76 155zM198.39 196.85a7.41 7.41 0 0 1-3.32 1.73l-20.81 4.81-5.87-6.54-5.57-6.21 24.84-5.74zM225.29 226.79a7.42 7.42 0 0 1-3.32 1.74l-21.85 5.05a19.09 19.09 0 0 0-3.29-5.07l-1.54-1.72-5.58-6.2 24.84-5.75z"/><path fill="#5563ad" d="M90.8 77.06a7.41 7.41 0 0 1-3.32 1.73L66.67 83.6 60.8 77.06l-5.58-6.2 24.84-5.75zM118.24 107.62a7.32 7.32 0 0 1-3.46 1.76l-21 4.42-5.56-6.18-6-6.71 25.23-5.31zM144.6 137a7.51 7.51 0 0 1-3.32 1.73l-20.81 4.81L114.6 137 109 130.74 133.86 125zM171.5 166.91a7.58 7.58 0 0 1-3.33 1.72l-20.8 4.81-5.87-6.53-5.58-6.21L160.76 155zM198.39 196.85a7.41 7.41 0 0 1-3.32 1.73l-20.81 4.81-5.87-6.54-5.57-6.21 24.84-5.74zM225.29 226.79a7.42 7.42 0 0 1-3.32 1.74l-21.85 5.05a19.09 19.09 0 0 0-3.29-5.07l-1.54-1.72-5.58-6.2 24.84-5.75z"/><path fill="#f26767" d="M67.32,434.84a22.6,22.6,0,0,0,4.43,3.93,13.28,13.28,0,0,0,7.62,2.2h0a15.62,15.62,0,0,0,11.43-5.62l17.5-20.06,41-47,124.36-127,26.55,30.43L188.73,413.4l-52.79,60.5c-30,34.36-77.27,35.86-105.63,3.36-23.2-26.6-26.54-67.73-10.54-100.61v0A92.57,92.57,0,0,1,33.25,356.2a84.89,84.89,0,0,1,10.09-9.84c5.88-4.83,13.3-6.59,20-4.44a30,30,0,0,1,13.48,9l.26.29c10,11.71,7.62,31.83-4.9,41.43a26.93,26.93,0,0,0-3.91,3.68c-9.53,10.92-10,28.19-.94,38.51"/><path fill="#f05252" d="M273.7 241.28l-15.87 16.2 12.42 14.23L158.73 413.4l-52.79 60.5c-11.59 13.28-25.76 21.63-40.43 25 24.16 5.74 50.95-2.7 70.43-25l52.79-60.5L300.25 271.71zM46.81 350.93l.26.29c10 11.71 7.62 31.83-4.9 41.43a26.93 26.93 0 0 0-3.91 3.68c-9.53 10.92-9.95 28.19-.94 38.51a22.6 22.6 0 0 0 4.43 3.93 13.28 13.28 0 0 0 7.62 2.2 15.62 15.62 0 0 0 11.43-5.62L64.59 431c-6.05-10.4-4.76-25 3.67-34.68a26.93 26.93 0 0 1 3.91-3.68c12.52-9.6 14.88-29.72 4.9-41.43l-.26-.29a30 30 0 0 0-13.48-9c-6.69-2.15-14.11-.39-20 4.44l-.69.59A32.38 32.38 0 0 1 46.81 350.93z"/><path fill="#fee867" d="M273.7,241.28l26.55,30.43L329,237.54l10.25-12.18,15.24-18.09,10.25-12.17L380,177l10.25-12.18,15.24-18.09,10.25-12.18L431,116.49l10.31-12.24,15.22-18.07,10-11.86L498.6,36.17a15,15,0,0,0-.18-19.52l-.17-.2a15,15,0,0,0-22.46-.16L431.94,65.11l-10.74,12L404.55,95.6l-10.79,12L378.14,125,367.4,137l-16.16,18-10.74,12-16.16,18-10.73,11.95-16.16,18-10.74,11.95Z"/><path fill="#fee235" d="M498.42,16.65l-.17-.2a15,15,0,0,0-22.46-.16l-4.58,5.09a15,15,0,0,1-2.61,14.79L436.47,74.32l-10,11.86-15.22,18.07L401,116.49l-15.21,18.06L375.5,146.73l-15.24,18.09L350,177l-15.24,18.1-10.25,12.17-15.24,18.09L299,237.54l-14,16.67,15.26,17.5L329,237.54l10.25-12.18,15.24-18.09,10.25-12.17L380,177l10.25-12.18,15.24-18.09,10.25-12.18L431,116.49l10.31-12.24,15.22-18.07,10-11.86L498.6,36.17A15,15,0,0,0,498.42,16.65Z"/><path fill="#646db3" d="M421.2 77.06a7.41 7.41 0 0 0 3.32 1.73l32 7.39 10-11.86a7.45 7.45 0 0 0-3.67-2.07l-30.86-7.14zM393.76 107.62a7.32 7.32 0 0 0 3.46 1.76L431 116.49l10.31-12.24a7.47 7.47 0 0 0-3.29-1.61l-33.43-7zM367.4 137a7.51 7.51 0 0 0 3.32 1.73l34.78 8 10.25-12.18a7.41 7.41 0 0 0-3.14-1.58l-34.47-8zM340.5 166.91a7.58 7.58 0 0 0 3.33 1.72L380 177l10.25-12.18a7.51 7.51 0 0 0-3.14-1.57L351.24 155zM313.61 196.85a7.41 7.41 0 0 0 3.32 1.73l37.59 8.69 10.25-12.17a7.41 7.41 0 0 0-3.14-1.58l-37.29-8.62zM286.71 226.79a7.42 7.42 0 0 0 3.32 1.74l39 9 10.25-12.18a7.55 7.55 0 0 0-3.15-1.57l-38.68-8.95z"/><path fill="#5563ad" d="M336.13 223.79a7.55 7.55 0 0 1 3.15 1.57L329 237.54l-25.12-5.8 5.37-6.38 5.49-6.51zM364.77 195.1l-10.25 12.17-25.11-5.81 5.36-6.36 5.49-6.52 21.37 4.94A7.41 7.41 0 0 1 364.77 195.1zM390.26 164.82L380 177l-25.11-5.81 5.36-6.37 5.49-6.51 21.37 4.94A7.51 7.51 0 0 1 390.26 164.82zM415.75 134.55L405.5 146.73l-25.11-5.81 5.36-6.37 5.49-6.52L412.61 133A7.41 7.41 0 0 1 415.75 134.55zM441.27 104.25L431 116.49l-25.48-5.37 5.79-6.87 5.18-6.14L438 102.64A7.47 7.47 0 0 1 441.27 104.25zM466.47 74.32l-10 11.86-25.11-5.81 5.09-6.05 5.75-6.83 20.58 4.76A7.45 7.45 0 0 1 466.47 74.32z"/><path fill="#5563ad" d="M466.47 74.32l-10 11.86-25.11-5.81 5.09-6.05 5.75-6.83 20.58 4.76A7.45 7.45 0 0 1 466.47 74.32zM441.27 104.25L431 116.49l-25.48-5.37 5.79-6.87 5.18-6.14L438 102.64A7.47 7.47 0 0 1 441.27 104.25zM415.75 134.55L405.5 146.73l-25.11-5.81 5.36-6.37 5.49-6.52L412.61 133A7.41 7.41 0 0 1 415.75 134.55zM390.26 164.82L380 177l-25.11-5.81 5.36-6.37 5.49-6.51 21.37 4.94A7.51 7.51 0 0 1 390.26 164.82zM364.77 195.1l-10.25 12.17-25.11-5.81 5.36-6.36 5.49-6.52 21.37 4.94A7.41 7.41 0 0 1 364.77 195.1zM339.28 225.36L329 237.54l-25.12-5.8 5.37-6.38 5.49-6.51 21.36 4.94A7.55 7.55 0 0 1 339.28 225.36z"/></svg>